<?xml version="1.0" encoding="UTF-8" standalone="no"?>
<!-- Created with Inkscape (http://www.inkscape.org/) -->

<svg
   xmlns:dc="http://purl.org/dc/elements/1.1/"
   xmlns:cc="http://creativecommons.org/ns#"
   xmlns:rdf="http://www.w3.org/1999/02/22-rdf-syntax-ns#"
   xmlns:svg="http://www.w3.org/2000/svg"
   xmlns="http://www.w3.org/2000/svg"
   xmlns:xlink="http://www.w3.org/1999/xlink"
   xmlns:sodipodi="http://sodipodi.sourceforge.net/DTD/sodipodi-0.dtd"
   xmlns:inkscape="http://www.inkscape.org/namespaces/inkscape"
   width="744.09448819"
   height="1052.3622047"
   id="svg3472"
   version="1.1"
   inkscape:version="0.48.2 r9819"
   sodipodi:docname="mooscog.svg">
  <defs
     id="defs3474">
    <linearGradient
       inkscape:collect="always"
       id="linearGradient3654">
      <stop
         style="stop-color:#ff6600;stop-opacity:1;"
         offset="0"
         id="stop3656" />
      <stop
         style="stop-color:#ff6600;stop-opacity:0;"
         offset="1"
         id="stop3658" />
    </linearGradient>
    <linearGradient
       inkscape:collect="always"
       xlink:href="#linearGradient3654"
       id="linearGradient3660"
       x1="569.28571"
       y1="1386.6479"
       x2="752.50336"
       y2="1387.3785"
       gradientUnits="userSpaceOnUse"
       gradientTransform="matrix(0,1,-1,0,1238.5691,-262.1603)" />
    <linearGradient
       inkscape:collect="always"
       xlink:href="#linearGradient3654"
       id="linearGradient4067"
       gradientUnits="userSpaceOnUse"
       gradientTransform="matrix(0.03185721,0.99949243,-0.99949243,0.03185721,2537.6594,566.76318)"
       x1="569.28571"
       y1="1386.6479"
       x2="752.50336"
       y2="1387.3785" />
    <linearGradient
       inkscape:collect="always"
       xlink:href="#linearGradient3654"
       id="linearGradient4097"
       gradientUnits="userSpaceOnUse"
       gradientTransform="matrix(0.03185721,0.99949243,-0.99949243,0.03185721,2537.6594,566.76318)"
       x1="569.28571"
       y1="1386.6479"
       x2="752.50336"
       y2="1387.3785" />
  </defs>
  <sodipodi:namedview
     id="base"
     pagecolor="#ffffff"
     bordercolor="#666666"
     borderopacity="1.0"
     inkscape:pageopacity="0.0"
     inkscape:pageshadow="2"
     inkscape:zoom="0.175"
     inkscape:cx="-255.96545"
     inkscape:cy="-1378.4158"
     inkscape:document-units="px"
     inkscape:current-layer="layer1"
     showgrid="false"
     inkscape:object-nodes="true"
     inkscape:snap-smooth-nodes="true"
     inkscape:object-paths="true"
     inkscape:window-width="1916"
     inkscape:window-height="1156"
     inkscape:window-x="137"
     inkscape:window-y="308"
     inkscape:window-maximized="0"
     inkscape:snap-nodes="false" />
  <metadata
     id="metadata3477">
    <rdf:RDF>
      <cc:Work
         rdf:about="">
        <dc:format>image/svg+xml</dc:format>
        <dc:type
           rdf:resource="http://purl.org/dc/dcmitype/StillImage" />
        <dc:title></dc:title>
      </cc:Work>
    </rdf:RDF>
  </metadata>
  <g
     inkscape:label="Layer 1"
     inkscape:groupmode="layer"
     id="layer1">
    <path
       style="fill:#000000"
       d="m 209.96128,762.02429 c 1.60124,-1.014 0.76478,-2.6219 -3.87736,-7.4529 -11.91771,-12.4028 -15.68841,-39.4356 -9.29343,-66.626 5.55837,-23.6333 7.41592,-32.7768 8.38187,-41.2583 0.85453,-7.5031 1.8861,-9.647 8.1371,-16.9109 3.93717,-4.575 8.82119,-11.7925 10.85334,-16.0386 2.03216,-4.2461 4.2569,-7.7202 4.94388,-7.7202 0.68697,0 2.01753,-1.8197 2.95682,-4.0439 0.93929,-2.2241 3.64869,-6.3599 6.02089,-9.1907 4.27176,-5.0973 4.31348,-5.1107 4.35266,-1.3884 0.062,5.8982 5.88677,12.5065 10.54791,11.9669 5.65473,-0.6549 8.67883,-4.8473 9.92217,-13.7557 0.60271,-4.3183 2.115,-9.8368 3.36064,-12.2631 1.24564,-2.4264 2.6895,-7.6535 3.2086,-11.6158 0.51909,-3.9623 1.52825,-7.9326 2.2426,-8.823 0.71433,-0.8904 1.75863,-3.7695 2.32067,-6.3981 0.85741,-4.0098 1.68428,-4.7791 5.13702,-4.7791 2.26331,0 6.49072,0.9925 9.39426,2.2057 6.87713,2.8735 9.40345,2.784 10.40403,-0.3685 0.44941,-1.4159 2.88244,-3.4886 5.40674,-4.6061 4.22026,-1.868 4.51884,-2.4597 3.70973,-7.3515 -0.48396,-2.926 -0.8872,-7.8524 -0.8961,-10.9475 -0.0118,-4.2575 -1.07191,-6.6832 -4.35276,-9.9641 -4.22225,-4.2222 -4.68812,-4.3286 -17.67373,-4.032 -7.91529,0.1809 -13.97583,-0.3339 -14.90821,-1.2662 -2.40744,-2.4075 -0.11264,-3.1425 15.76712,-5.0501 14.59951,-1.7537 22.61743,-5.2006 28.4525,-12.2314 1.09184,-1.3155 6.62864,-5.5072 12.30398,-9.3148 11.57081,-7.7627 18.62822,-16.3187 18.62822,-22.5838 0,-5.54 -2.01673,-5.2983 -5.71463,0.6849 -4.43449,7.1753 -8.71327,10.6948 -10.6488,8.7592 -1.13807,-1.1381 -0.25088,-4.9416 3.12729,-13.407 3.794,-9.5074 4.44689,-12.626 3.33917,-15.949 -2.42996,-7.2899 -4.11589,-5.1123 -10.17875,13.1475 -0.46996,1.4154 -1.35292,2.5734 -1.96215,2.5734 -2.06806,0 -4.45714,-16.9635 -3.6309,-25.781 0.89428,-9.5438 -0.55222,-13.4264 -4.44542,-11.9325 -1.87487,0.7196 -2.24195,1.9924 -1.52102,5.2749 1.10996,5.0536 -0.95292,9.6173 -5.43038,12.0135 -2.67554,1.432 -3.57696,1.2054 -5.71644,-1.4367 -2.99145,-3.6943 -5.74486,-4.0889 -5.74486,-0.8232 0,1.3942 -1.00254,2.1205 -2.52286,1.8277 -2.21041,-0.4257 -3.76195,-2.7104 -7.74568,-11.4063 -1.78434,-3.8949 -4.15844,-3.231 -5.18665,1.4504 -1.19107,5.4229 -3.35671,4.1611 -5.79262,-3.375 -1.97019,-6.0953 -5.79692,-6.3153 -6.41579,-0.3688 -0.93849,9.0179 -8.43018,9.7513 -13.40905,1.3127 -3.3518,-5.6809 -5.37064,-6.2963 -6.71899,-2.048 -1.12719,3.5516 -3.2963,3.7409 -6.77649,0.5913 -3.03278,-2.7447 -5.72286,-1.6164 -5.72286,2.4002 0,2.4225 -0.53312,2.6152 -3.79969,1.3732 -4.84348,-1.8414 -6.49634,-0.7766 -6.48421,4.1777 0.0169,6.9318 10.04394,18.6092 20.57748,23.9645 9.02396,4.5878 13.80806,8.2023 17.54265,13.2536 l 3.15553,4.2681 -5.22309,6.8404 c -2.8727,3.7623 -5.62264,9.3392 -6.11099,12.393 -1.00562,6.289 -1.48917,6.5937 -12.44222,7.8408 -7.40548,0.8432 -8.28091,0.5995 -12.76562,-3.5529 l -4.81491,-4.4582 3.2533,-4.4003 c 1.78932,-2.4202 3.69169,-4.4004 4.22748,-4.4004 0.53579,0 3.13933,-3.4741 5.78567,-7.7202 5.00287,-8.0272 7.65904,-18.749 4.6448,-18.749 -0.91528,0 -1.66414,0.5606 -1.66414,1.2455 0,0.6851 -1.32346,2.7715 -2.94102,4.6366 -1.61756,1.8652 -2.94102,4.2544 -2.94102,5.3098 0,2.7649 -12.51791,9.7004 -16.49103,9.1369 -3.67678,-0.5216 -3.7507,-1.4851 -1.79238,-23.3632 0.69041,-7.7131 0.40186,-10.0354 -1.43644,-11.561 -4.14853,-3.4431 -6.48434,-0.9635 -5.69442,6.0447 1.14023,10.1161 -1.93906,18.6893 -9.27304,25.8172 -4.0006,3.8883 -7.79918,6.2617 -10.02123,6.2617 -5.07612,0 -9.7004,-7.969 -9.7004,-16.7168 0,-6.9018 -1.38221,-8.2188 -5.73394,-5.4635 -1.56592,0.9915 -1.82642,3.2704 -1.09005,9.5358 0.8518,7.2474 0.65803,8.2305 -1.61861,8.2118 -6.53747,-0.053 -13.43258,-21.8986 -13.56967,-42.9913 -0.0334,-5.1333 -0.61644,-6.9849 -2.19945,-6.9849 -2.90577,0 -5.19363,4.6294 -5.22104,10.5646 -0.0691,14.9507 -12.12059,8.1657 -16.55006,-9.3176 -1.72425,-6.8057 -2.47426,-7.8643 -5.57172,-7.8643 -3.22255,0 -3.53319,0.5348 -3.11697,5.366 0.81529,9.4627 -5.36956,9.1645 -9.21425,-0.4442 -2.54302,-6.3557 -5.37139,-6.8326 -6.73877,-1.1365 -0.82981,3.4568 -0.9084,3.4193 -2.53746,-1.2119 -2.05122,-5.8312 -2.92586,-5.9619 -4.9214,-0.7353 -1.41959,3.7182 -1.69624,3.8367 -3.43437,1.4705 -2.844938,-3.8727 -3.771938,-3.147 -3.771938,2.9528 0,15.5395 26.080798,45.6328 50.022688,57.7186 4.72425,2.3849 15.83495,6.6973 24.69045,9.5833 8.85548,2.8861 19.29071,7.2704 23.18939,9.7428 4.30895,2.7326 10.28943,4.9606 15.2516,5.6816 13.3436,1.939 14.23159,2.6518 8.57839,6.8852 -9.57613,7.1713 -15.33095,9.2997 -24.26732,8.9754 -8.4061,-0.3051 -17.91221,1.6091 -37.90946,7.6333 -12.41862,3.7413 -41.78388,5.6416 -49.39322,3.1968 -14.174068,-4.5544 -41.881238,-5.3656 -49.131078,-1.4386 -7.52774,4.0774 -24.56695,19.2375 -29.76297,26.4805 -6.21771,8.6672 -7.87943,16.5944 -3.70727,17.6856 2.48509,0.6498 3.00988,2.5635 3.8862,14.172 0.55723,7.3815 0.5671,16.8997 0.0219,21.1516 -0.98451,7.6785 -6.42609,20.5937 -9.46922,22.4745 -3.85647,2.3834 -4.93861,9.7466 -5.07311,34.5182 -0.0997,18.3688 -0.90309,29.6356 -2.80687,39.3656 -3.0798904,15.741 -2.3556304,23.8665 2.12734,23.8665 2.358,0 2.8744,1.0245 2.8744,5.702 0,3.2097 0.94008,6.4822 2.15083,7.487 3.0216,2.5078 19.21501,3.8252 20.546,1.6717 0.57343,-0.9279 -0.99033,-4.8166 -3.47499,-8.6415 -10.98281,-16.9072 -11.08759,-17.4454 -8.36602,-42.982 1.33604,-12.5362 2.41783,-24.6489 2.40397,-26.9175 -0.0132,-2.2685 1.21265,-6.9006 2.72555,-10.2936 1.51291,-3.3929 3.0018,-6.8308 3.30866,-7.6396 1.30147,-3.4302 14.70804,-22.4948 17.65055,-25.0997 l 3.20828,-2.84 -0.86786,4.5035 c -0.47731,2.4769 -1.07463,5.4031 -1.32738,6.5026 -0.25274,1.0995 -2.69454,6.0211 -5.42621,10.9369 l -4.96667,8.9378 3.25242,8.823 c 1.78884,4.8527 4.60765,12.7935 6.26405,17.6462 1.65639,4.8527 3.78367,9.8156 4.72728,11.0288 4.17544,5.3684 13.35319,31.1433 14.66106,41.1744 1.06043,8.1334 2.57647,12.2965 5.50976,15.1301 1.49778,1.4468 2.72324,4.1781 2.72324,6.0696 0,4.3632 2.26465,6.2131 9.1907,7.5073 5.76819,1.078 15.811048,-0.1528 15.803768,-1.9368 -0.003,-0.5698 -1.95131,-2.3408 -4.33108,-3.9351 -2.379778,-1.5945 -4.070648,-3.1551 -3.757488,-3.4684 0.31316,-0.3132 -1.65495,-3.803 -4.37358,-7.7551 -2.71862,-3.9522 -5.3761,-9.3397 -5.9055,-11.9721 -0.5294,-2.6325 -2.49372,-9.0876 -4.36514,-14.3447 -7.49489,-21.054 -10.34949,-34.2358 -10.34949,-47.7916 0,-11.5323 0.54179,-14.3694 4.21242,-22.0577 2.31684,-4.8527 5.82513,-10.9743 7.7962,-13.6037 5.94572,-7.9315 15.679588,-11.3506 22.200728,-7.7981 6.8225,3.7166 23.21711,7.3151 37.32043,8.1915 15.48669,0.9624 15.65769,1.0135 16.35177,4.8858 2.2254,12.4152 -3.6385,71.0198 -8.41055,84.0559 -1.03622,2.8307 -2.34211,8.29 -2.90195,12.1317 -0.93046,6.3851 -0.75996,6.9849 1.98522,6.9849 3.21778,0 5.53823,5.5443 3.99913,9.5551 -0.57169,1.4898 0.0666,2.209 1.9604,2.209 1.54445,0 3.21706,0.6618 3.71691,1.4705 1.11883,1.8104 12.47488,1.9067 15.28115,0.1295 1.68305,-1.0657 1.46938,-2.1064 -1.20303,-5.8594 -1.78724,-2.5101 -3.81149,-4.5636 -4.49831,-4.5636 -0.68681,0 -2.38714,-2.9809 -3.77851,-6.6243 -3.79078,-9.9259 -2.54841,-18.9397 7.90368,-57.343 l 2.80156,-10.2936 1.51469,5.1468 c 0.88298,3.0003 1.42728,19.8657 1.30506,40.4391 -0.20697,34.8443 -0.17033,35.2979 2.88829,35.7345 2.13504,0.3048 3.69364,2.2473 5.01454,6.2496 l 1.91661,5.8074 8.95532,-0.022 c 4.92544,-0.015 9.8741,-0.6042 10.99704,-1.3154 z"
       id="path3507"
       inkscape:connector-curvature="0" />
    <rect
       style="fill:#ff6600;fill-opacity:1;stroke:none"
       id="rect3523"
       width="15.748384"
       height="15.748384"
       x="58.736675"
       y="541.55939"
       ry="3.6418037" />
    <rect
       ry="3.6418037"
       y="541.55939"
       x="77.185226"
       height="15.748384"
       width="15.748384"
       id="rect3525"
       style="fill:#ff6600;fill-opacity:1;stroke:none" />
    <rect
       ry="3.6418037"
       y="541.55939"
       x="95.633804"
       height="15.748384"
       width="15.748384"
       id="rect3527"
       style="fill:#ff6600;fill-opacity:1;stroke:none" />
    <rect
       style="fill:#ff6600;fill-opacity:1;stroke:none"
       id="rect3529"
       width="15.748384"
       height="15.748384"
       x="114.08238"
       y="541.55939"
       ry="3.6418037" />
    <rect
       ry="3.6418037"
       y="560.00812"
       x="58.736675"
       height="15.748384"
       width="15.748384"
       id="rect3531"
       style="fill:#ff6600;fill-opacity:1;stroke:none" />
    <rect
       style="fill:#ff6600;fill-opacity:1;stroke:none"
       id="rect3533"
       width="15.748384"
       height="15.748384"
       x="77.185226"
       y="560.00812"
       ry="3.6418037" />
    <rect
       style="fill:#ff6600;fill-opacity:1;stroke:none"
       id="rect3535"
       width="15.748384"
       height="15.748384"
       x="95.633804"
       y="560.00812"
       ry="3.6418037" />
    <rect
       ry="3.6418037"
       y="560.00812"
       x="114.08238"
       height="15.748384"
       width="15.748384"
       id="rect3537"
       style="fill:#ff6600;fill-opacity:1;stroke:none" />
    <rect
       style="fill:#ff6600;fill-opacity:1;stroke:none"
       id="rect3539"
       width="15.748384"
       height="15.748384"
       x="58.736675"
       y="578.45673"
       ry="3.6418037" />
    <rect
       ry="3.6418037"
       y="578.45673"
       x="77.185226"
       height="15.748384"
       width="15.748384"
       id="rect3541"
       style="fill:#ff6600;fill-opacity:1;stroke:none" />
    <rect
       ry="3.6418037"
       y="578.45673"
       x="95.633804"
       height="15.748384"
       width="15.748384"
       id="rect3543"
       style="fill:#ff6600;fill-opacity:1;stroke:none" />
    <rect
       style="fill:#ff6600;fill-opacity:1;stroke:none"
       id="rect3545"
       width="15.748384"
       height="15.748384"
       x="114.08238"
       y="578.45673"
       ry="3.6418037" />
    <rect
       ry="3.6418037"
       y="596.90546"
       x="58.736675"
       height="15.748384"
       width="15.748384"
       id="rect3547"
       style="fill:#ff6600;fill-opacity:1;stroke:none" />
    <rect
       style="fill:#ff6600;fill-opacity:1;stroke:none"
       id="rect3549"
       width="15.748384"
       height="15.748384"
       x="77.185226"
       y="596.90546"
       ry="3.6418037" />
    <rect
       style="fill:#ff6600;fill-opacity:1;stroke:none"
       id="rect3551"
       width="15.748384"
       height="15.748384"
       x="95.633804"
       y="596.90546"
       ry="3.6418037" />
    <rect
       ry="3.6418037"
       y="596.90546"
       x="114.08238"
       height="15.748384"
       width="15.748384"
       id="rect3553"
       style="fill:#ff6600;fill-opacity:1;stroke:none" />
    <g
       id="g3605"
       transform="matrix(0,0.58888009,-0.58888009,0,933.68977,-15.380694)"
       style="fill:#ff6600;fill-opacity:1"
       inkscape:export-filename="/Users/kaos/Documents/Processing/moOSCog/data/logo.png"
       inkscape:export-xdpi="100"
       inkscape:export-ydpi="100">
      <path
         style="fill:#ff6600;fill-opacity:1"
         d="m 530.21428,1899.1478 c 0,-2.1728 -0.44167,-2.5 -3.375,-2.5 -1.85625,0 -4.78125,-0.2812 -6.5,-0.625 -2.88097,-0.5762 -3.125,-0.4147 -3.125,2.0674 0,2.0894 -0.39195,2.5796 -1.75,2.1888 -0.9625,-0.277 -3.70213,-1.0655 -6.08807,-1.7521 -3.91433,-1.1265 -4.28768,-1.5004 -3.82224,-3.8275 0.45489,-2.2745 -0.0958,-2.9063 -4.66193,-5.3488 -5.15157,-2.7556 -5.18605,-2.7594 -6.81679,-0.7624 -1.6149,1.9775 -1.70759,1.9468 -6.29346,-2.0899 -4.20698,-3.7031 -4.51055,-4.256 -3.15781,-5.7507 1.34587,-1.4872 1.14023,-2.1043 -2.0416,-6.1268 -1.94603,-2.4601 -3.68641,-4.622 -3.86752,-4.804 -0.18111,-0.1821 -1.23748,0.155 -2.34749,0.7491 -1.7031,0.9114 -2.30957,0.6509 -3.8844,-1.669 -1.02641,-1.512 -2.41529,-4.0265 -3.0864,-5.5878 -1.09546,-2.5484 -1.01379,-2.8926 0.79875,-3.3666 2.43563,-0.6369 2.48734,-1.5638 0.42496,-7.6166 -1.27356,-3.7377 -2.05255,-4.6781 -3.875,-4.6781 -1.75472,0 -2.4252,-0.721 -2.906,-3.125 -1.0644,-5.322 -0.76105,-9.8621 0.625,-9.3541 2.33023,0.854 3.44758,-1.0043 4.01829,-6.6829 0.54011,-5.3742 0.4454,-5.693 -1.86305,-6.2724 -2.64994,-0.6651 -2.61442,-2.4227 0.18887,-9.3444 1.08995,-2.6912 1.73815,-3.179 3.61691,-2.7219 1.95155,0.4748 2.68811,-0.2025 4.99657,-4.5952 2.67677,-5.0936 2.68519,-5.1707 0.73997,-6.7781 -1.92634,-1.5919 -1.88102,-1.7266 2.16098,-6.4237 3.89319,-4.5241 4.23242,-4.7037 5.94959,-3.1497 1.71041,1.5479 2.09793,1.4165 6.38143,-2.1641 4.71827,-3.9439 5.25921,-4.8386 3.56044,-5.8885 -1.96428,-1.214 -0.92718,-2.5032 4.03749,-5.019 5.12817,-2.5986 6.96251,-2.5588 6.96251,0.1513 0,0.8329 0.5625,1.3464 1.25,1.141 0.6875,-0.2053 3.3875,-1.0066 6,-1.7807 4.12852,-1.2233 4.75,-1.7566 4.75,-4.0762 0,-2.5256 0.30829,-2.6949 5.75,-3.1568 5.69185,-0.4831 7.55012,0.2947 6.60266,2.7638 -0.50808,1.324 3.80715,2.4766 9.27234,2.4766 2.2719,0 3.375,-0.471 3.375,-1.441 0,-2.4756 1.8395,-2.7476 7.48423,-1.1066 5.12317,1.4893 5.42783,1.7542 4.96679,4.3171 -0.44494,2.4735 -0.004,2.9565 4.68201,5.1314 4.87831,2.264 5.24617,2.301 6.45354,0.6498 1.42683,-1.9513 2.07259,-1.7063 7.59633,2.8813 3.39032,2.8158 3.5586,3.1962 2.1182,4.7878 -1.41996,1.569 -1.41804,1.9395 0.0207,4.0046 4.67711,6.7134 5.36716,7.2384 7.9614,6.0563 2.34358,-1.0678 2.60998,-0.8455 5.25719,4.3866 2.788,5.5104 2.71588,6.2493 -0.73867,7.5664 -0.38406,0.1465 0.0659,2.853 1,6.0144 1.5338,5.1914 1.96467,5.7483 4.4483,5.75 2.58477,0 2.75,0.2674 2.75,4.4201 0,2.43 0.27314,5.13 0.60699,6 0.45302,1.1806 -0.0226,1.5818 -1.875,1.5818 -2.67865,0 -3.73199,2.7166 -3.73199,9.625 0,2.7083 0.39506,3.375 2,3.375 2.40381,0 2.41878,0.2268 0.45224,6.8489 -1.37293,4.6231 -1.82861,5.1802 -4.0342,4.9315 -2.04794,-0.231 -2.95009,0.5557 -5.11542,4.4606 -2.47238,4.4585 -2.52924,4.8511 -0.95443,6.5913 1.58141,1.7474 1.47669,2.1094 -1.88263,6.509 -3.8709,5.0696 -4.87288,5.5402 -6.31377,2.9655 -0.84492,-1.5098 -1.3416,-1.3473 -4.58448,1.5 -2.0003,1.7562 -4.07124,3.1932 -4.60211,3.1932 -1.30125,0 -1.22905,3.3362 0.10099,4.6662 0.75492,0.7549 -0.2459,1.8351 -3.42807,3.7 -5.27553,3.0917 -6.48362,3.2274 -8.17233,0.9179 -1.18396,-1.6192 -1.57566,-1.6147 -6.94881,0.079 -5.11108,1.6111 -5.63522,2.0296 -5.1188,4.0872 0.50607,2.0164 0.1255,2.3667 -3.16143,2.91 -7.4693,1.2347 -9.23677,0.8787 -9.23677,-1.8603 z m 12.41762,-8.0002 c 3.80469,-0.806 9.11167,-2.6127 11.79329,-4.0149 2.68162,-1.4022 5.41869,-2.2378 6.08238,-1.8568 0.66369,0.3809 0.89326,0.3445 0.51015,-0.081 -0.3831,-0.4255 1.4169,-2.4677 4,-4.5383 6.8014,-5.452 10.59382,-9.7196 14.66081,-16.4979 11.40669,-19.0111 10.47286,-43.8952 -2.33146,-62.1279 -5.73512,-8.1666 -9.76262,-11.8981 -18.14249,-16.8094 -9.57219,-5.6101 -17.78105,-7.8566 -28.92263,-7.9152 -16.72492,-0.088 -29.08005,5.0886 -41.11867,17.2276 -11.63503,11.7321 -16.949,24.3089 -16.949,40.114 0,15.4916 6.01703,30.1011 16.83774,40.8825 14.43052,14.378 33.37062,19.8986 53.57988,15.6173 z m -21.91762,-8.5218 c -21.39128,-4.2937 -37.41228,-22.2479 -39.18433,-43.9126 -1.83449,-22.4283 13.3286,-44.2987 35.07139,-50.5849 8.13639,-2.3524 22.89072,-1.655 30.93717,1.4623 13.05082,5.0562 24.54918,17.4323 28.70919,30.9008 2.17056,7.0275 2.57959,18.7853 0.90604,26.0446 -5.59008,24.2481 -31.83286,41.0288 -56.43946,36.0898 z m 13.67126,-12.633 c 2.41285,-2.1836 2.3274,-6.8463 -0.17126,-9.345 -4.822,-4.822 -12.80347,-0.2883 -10.93877,6.2135 0.49622,1.7302 1.47295,3.5081 2.1705,3.9509 2.15255,1.3663 7.01711,0.9204 8.93953,-0.8194 z m 26.57874,-15.1371 c 0.6875,-0.8746 1.25,-3.0536 1.25,-4.8423 0,-3.5666 -2.87308,-6.3656 -6.53394,-6.3656 -2.72834,0 -6.46606,3.5288 -6.46606,6.1047 0,6.5703 7.89969,10.0013 11.75,5.1032 z m -53.38486,-0.2805 c 6.36013,-5.0029 0.27093,-14.27 -7.05676,-10.7397 -3.31835,1.5987 -4.44743,5.392 -2.67055,8.972 2.14017,4.3119 5.67604,4.9545 9.72731,1.7677 z m 30.45169,-10.7563 c 7.69861,-7.1916 3.49308,-19.725 -7.00456,-20.8752 -11.78656,-1.2914 -17.85447,13.4421 -8.70629,21.1398 4.45242,3.7465 11.54486,3.627 15.71085,-0.2646 z m -28.60249,-20.4837 c 1.32249,-2.0798 0.84294,-6.9666 -0.86933,-8.8587 -2.1836,-2.4128 -6.84635,-2.3274 -9.34501,0.1713 -3.61894,3.6189 -2.02168,9.5959 3,11.2259 1.84648,0.5994 6.19118,-0.9293 7.21434,-2.5385 z m 51.14872,1.8067 c 2.37284,-2.3729 2.87269,-5.2292 1.43985,-8.228 -2.26301,-4.7363 -9.70228,-4.3375 -11.76006,0.6305 -1.2494,3.0163 -0.23416,6.608 2.35685,8.3381 1.88135,1.2562 6.38543,0.8373 7.96336,-0.7406 z m -25.81761,-15.9486 c 1.35,-1.35 2.45455,-3.3955 2.45455,-4.5455 0,-2.4711 -4.2185,-7 -6.52029,-7 -7.01769,0 -9.62084,10.4017 -3.24425,12.9635 3.55509,1.4282 4.68243,1.2095 7.30999,-1.418 z"
         id="path3609"
         inkscape:connector-curvature="0"
         sodipodi:nodetypes="sscscccscsccccsccssscssssscsscssscssscsscscsssscscccscsssscccsscsssssscssscsssssssssssssssssssscssssssssssssssccscccssccssscs" />
    </g>
    <path
       sodipodi:type="arc"
       style="fill:#ff6600;fill-opacity:1;stroke:#000000;stroke-width:2;stroke-miterlimit:4;stroke-opacity:1;stroke-dasharray:none"
       id="path3646"
       sodipodi:cx="600.71429"
       sodipodi:cy="1401.6479"
       sodipodi:rx="8.5714283"
       sodipodi:ry="8.5714283"
       d="m 609.28572,1401.6479 a 8.5714283,8.5714283 0 1 1 -17.14285,0 8.5714283,8.5714283 0 1 1 17.14285,0 z"
       transform="matrix(0,1,-1,0,1253.5691,-302.1603)"
       inkscape:export-filename="/Users/kaos/Documents/Processing/moOSCog/data/logo.png"
       inkscape:export-xdpi="100"
       inkscape:export-ydpi="100" />
    <path
       style="fill:url(#linearGradient3660);fill-opacity:1;stroke:none"
       d="m -78.078788,489.98259 -140.142902,0.7142 61.5714,-192.1428 17.1429,0 z"
       id="path3652"
       inkscape:connector-curvature="0"
       sodipodi:nodetypes="ccccc"
       inkscape:export-filename="/Users/kaos/Documents/Processing/moOSCog/data/logo.png"
       inkscape:export-xdpi="100"
       inkscape:export-ydpi="100" />
    <g
       id="g3692"
       transform="translate(146.23973,-537.81001)">
      <path
         style="opacity:0.5;fill:#ff6600;fill-opacity:1"
         d="m 726.02138,1023.0467 c 6.76857,-3.1675 17.47947,-13.4493 21.43677,-20.578 8.86415,-15.96785 9.32427,-17.15705 10.19498,-26.35045 3.81322,-40.262 4.88397,-69.4158 2.61825,-71.2881 -0.6875,-0.5681 -3.05,-1.3361 -5.25,-1.7066 -2.2,-0.3706 -5.5035,-1.1342 -7.3411,-1.6971 -3.14765,-0.9642 -3.30351,-1.2238 -2.69179,-4.4846 0.48038,-2.5606 0.11383,-4.3687 -1.4089,-6.9495 -3.3482,-5.6748 -2.84077,-6.7974 3.69179,-8.1677 3.1625,-0.6633 17.35504,-1.5455 31.53898,-1.9603 15.07191,-0.4408 26.08446,-1.1681 26.5,-1.7502 0.39106,-0.5477 1.4312,-1.4459 2.31143,-1.9959 12.60286,-7.8748 24.38119,-20.3483 27.85579,-29.5 2.79256,-7.3554 5.26926,-11.6249 7.27706,-12.5451 1.1458,-0.5252 2.8219,-2.3049 3.7246,-3.9549 0.9026,-1.65 2.6297,-4.575 3.8379,-6.5 4.8391,-7.7101 1.6065,-10.2963 -4.4744,-3.5796 -4.962,5.4806 -6.3191,4.5989 -4.4355,-2.8817 1.3967,-5.5466 1.3971,-5.5387 -0.2639,-5.5387 -0.7579,0 -2.0266,0.9768 -2.8193,2.1707 -3.30216,4.9733 -5.27156,-2.4294 -2.21756,-8.3353 2.45766,-4.7525 0.2518,-5.9428 -3.5236,-1.9012 -4.3228,4.6275 -5.9964,3.657 -8.07799,-4.6842 -1.44051,-5.7724 -4.49135,-5.9125 -6.69308,-0.3074 -2.11552,5.3855 -4.04273,5.8945 -5.85913,1.5472 -1.83138,-4.3831 -4.4313,-4.6705 -4.4313,-0.4898 0,1.6843 -0.5482,3.0403 -1.25,3.0919 -0.6875,0.05 -2.6,0.163 -4.25,0.25 -2.96356,0.1562 -3.00607,0.2391 -3.5,6.8272 -0.275,3.668 -0.83818,7.0062 -1.25151,7.4182 -0.41333,0.412 -1.83292,0.1703 -3.15464,-0.5371 -1.32173,-0.7073 -2.89605,-0.9815 -3.4985,-0.6091 -1.54206,0.953 -1.36354,6.7295 0.28081,9.0864 2.05731,2.9488 3.97893,12.774 3.24785,16.6062 -1.00789,5.2831 -5.36737,13.8663 -7.04282,13.8663 -1.87899,0 -2.76605,-1.7708 -5.00947,-10 -2.58621,-9.4866 -4.62521,-15 -5.54744,-15 -1.76592,0 -2.02874,3.7495 -0.94063,13.4195 1.26596,11.2505 0.0647,16.7854 -3.86602,17.8133 -2.95748,0.7734 -8.81057,-2.2715 -11.42847,-5.9453 -6.89922,-9.682 -8.78916,-12.4218 -8.78916,-12.7416 0,-0.1946 -1.61913,-3.2095 -3.59806,-6.6998 -1.97893,-3.4904 -4.95488,-8.8211 -6.61322,-11.8461 -3.40557,-6.2121 -6.40019,-9.7219 -7.42264,-8.6994 -1.24369,1.2437 1.83782,8.9583 9.68418,24.2445 6.55098,12.7625 7.53346,15.3037 6.47592,16.75 -0.68566,0.9377 -1.5214,1.7049 -1.85719,1.7049 -0.33578,0 -2.68646,1.4625 -5.22372,3.25 l -4.6132,3.25 -13.66604,0.1213 c -7.51631,0.067 -15.7781,0.4474 -18.35953,0.8462 -5.7437,0.8871 -10.0445,-0.4133 -17.08545,-5.166 -2.87158,-1.9383 -6.17736,-3.8916 -7.34618,-4.3406 -1.62095,-0.6227 -2.00848,-1.4267 -1.63343,-3.3887 0.27044,-1.4147 0.88925,-2.5722 1.37514,-2.5722 0.48588,0 0.88342,-0.5908 0.88342,-1.3128 0,-0.7221 1.18102,-3.7596 2.62448,-6.75 1.44347,-2.9905 3.92558,-8.3622 5.51581,-11.9372 1.59023,-3.575 3.33421,-7.2814 3.87551,-8.2364 1.27037,-2.2414 1.26221,-5.4737 -0.0158,-6.2636 -0.55,-0.3399 -1,0.046 -1,0.8576 0,0.8117 -0.3375,1.6257 -0.75,1.8091 -0.4125,0.1833 -1.84739,2.3583 -3.18864,4.8333 -5.02839,9.2789 -18.30697,29.4837 -20.28896,30.872 -1.13214,0.793 -2.97522,2.4962 -4.09575,3.7849 -1.60993,1.8516 -3.04838,2.3431 -6.85699,2.3431 l -4.81966,0 0,-11.893 c 0,-9.7595 -0.27483,-11.9985 -1.53201,-12.4809 -1.99312,-0.7648 -3.21781,2.4757 -4.06658,10.7602 -0.82274,8.0304 -1.60695,9.5163 -3.98433,7.5494 -2.71935,-2.2498 -6.39654,-11.0394 -6.40731,-15.3154 -0.0109,-4.3403 3.9533,-19.9348 5.19998,-20.4557 1.49608,-0.6251 -0.31483,-2.1646 -2.54626,-2.1646 -1.22016,0 -3.21861,-0.7005 -4.44098,-1.5567 -1.81554,-1.2717 -2.22251,-2.5156 -2.22251,-6.7932 0,-5.0441 -0.11934,-5.2717 -3.24792,-6.1933 -2.02,-0.5951 -3.3839,-1.7129 -3.6076,-2.9568 -0.19784,-1.1 -0.79417,-2.5358 -1.3252,-3.1906 -1.13449,-1.3989 -3.81928,-0.6274 -3.81928,1.0976 0,0.6561 -0.52047,1.7135 -1.15659,2.3496 -1.59192,1.5919 -6.40995,-1.8934 -7.25127,-5.2455 -0.34664,-1.3811 -1.24711,-2.5111 -2.00106,-2.5111 -1.27293,0 -5.59108,7.7149 -5.59108,9.9891 0,0.556 -1.27396,1.0109 -2.83102,1.0109 -1.9963,0 -3.22551,-0.7371 -4.16898,-2.5 -1.43104,-2.6739 -3.55981,-3.2983 -4.2616,-1.25 -0.23555,0.6875 0.40195,3.1998 1.41666,5.5829 3.03187,7.1205 1.97333,9.0466 -3.04138,5.5342 -1.95397,-1.3686 -2.47311,-1.4091 -3.2072,-0.25 -1.22126,1.9283 -1.13042,2.5161 0.66654,4.3131 2.12472,2.1247 1.41493,4.9973 -1.33162,5.3891 -1.58732,0.2265 -2.49607,-0.3551 -3.12503,-2 -1.24486,-3.2556 -4.75244,-6.1729 -6.57913,-5.472 -1.8566,0.7125 -2.0153,4.007 -0.28089,5.8313 1.24655,1.3111 10.18279,15.2666 12.52368,19.5578 0.67098,1.2301 1.21997,2.8086 1.21997,3.508 0,1.3004 4.78916,10.8523 5.89405,11.7556 0.33637,0.275 1.9335,2.4479 3.5492,4.8286 5.63495,8.303 16.471,16.3737 26.04754,19.4001 1.65506,0.5231 14.48421,1.2904 28.50921,1.7053 17.68624,0.5231 26.346,1.1591 28.2609,2.0756 2.70001,1.2922 2.74827,1.4666 2.18832,7.9059 -0.93798,10.7867 -0.85543,10.634 -6.6826,12.3625 -2.89664,0.8592 -6.54138,1.8411 -8.09943,2.1819 l -2.8328,0.6198 0.46252,37.7101 c 0.34637,28.24 0.81108,38.8403 1.85045,42.2102 1.92671,6.2469 7.96812,19.00005 9.00068,19.00005 0.46858,0 0.85196,0.5653 0.85196,1.2562 0,1.7872 10.54318,12.4432 14.32731,14.4806 1.74498,0.9396 6.32269,3.1797 10.17269,4.9782 8.23516,3.8469 11.25986,3.8036 20,-0.2866 z"
         id="path3704"
         inkscape:connector-curvature="0" />
    </g>
    <path
       style="fill:#ff6600;stroke:#ff6600;stroke-opacity:1"
       d="m 861.89727,377.43599 c 10.2388,6.4365 15.7158,10.9149 19.2881,28.1581 0,0 1.9879,-17.9 0.1452,-26.712 -3.0002,-9.2317 -11.2137,-17.2544 -19.5249,-22.2769 l 0.092,20.8308 c 0,0 0,0 0,0 z"
       id="path3891"
       inkscape:connector-curvature="0"
       sodipodi:nodetypes="cccccc" />
    <path
       d="m 873.35597,395.85799 0,8.7844 -6.3811,-2.7348 -0.011,-0.012 -0.011,-0.012 -0.01,-0.012 -0.01,-0.012 -0.01,-0.012 -0.01,-0.012 -0.01,-0.012 -0.01,-0.012 -0.01,-0.012 -0.01,-0.012 -0.01,-0.012 -0.01,-0.012 -0.01,-0.012 -0.01,-0.012 -0.01,-0.012 -0.01,-0.012 -0.01,-0.012 -0.01,-0.012 -0.01,-0.012 -0.01,-0.012 -0.01,-0.012 -0.01,-0.012 -0.01,-0.012 -0.01,-0.012 -0.01,-0.012 -0.01,-0.012 -0.01,-0.012 -0.01,-0.012 -0.01,-0.012 -0.01,-0.012 -0.01,-0.012 -0.01,-0.012 -0.01,-0.012 -0.01,-0.012 -0.01,-0.012 -0.01,-0.012 -0.01,-0.012 -0.01,-0.012 -0.01,-0.012 -0.01,-0.012 -0.01,-0.012 -0.01,-0.012 -0.01,-0.012 -0.01,-0.012 -0.01,-0.012 -0.01,-0.012 -0.01,-0.012 -0.01,-0.012 -0.01,-0.012 -0.01,-0.012 -0.01,-0.012 -0.01,-0.012 -0.01,-0.012 -0.01,-0.012 -0.01,-0.012 -0.01,-0.012 -0.01,-0.012 -0.01,-0.012 -0.01,-0.012 -0.01,-0.012 -0.01,-0.012 -0.01,-0.012 -0.01,-0.012 -0.01,-0.012 -0.01,-0.012 -0.01,-0.012 -0.01,-0.012 -0.01,-0.012 -0.01,-0.012 -0.01,-0.012 -0.01,-0.012 -0.01,-0.012 -0.01,-0.012 -0.01,-0.012 -0.01,-0.012 -0.01,-0.012 -0.01,-0.012 -0.01,-0.012 -0.01,-0.012 -0.01,-0.012 -0.01,-0.012 -0.01,-0.012 -0.01,-0.012 -0.01,-0.012 -0.01,-0.012 -0.01,-0.012 -0.01,-0.012 -0.01,-0.012 -0.01,-0.012 -0.01,-0.012 -0.01,-0.012 -0.01,-0.012 -0.01,-0.012 -0.01,-0.012 -0.01,-0.012 -0.01,-0.012 -0.01,-0.012 -0.01,-0.012 -0.01,-0.012 -0.01,-0.012 -0.01,-0.012 -0.01,-0.012 -0.01,-0.012 -0.01,-0.012 -0.01,-0.012 -0.01,-0.012 -0.01,-0.012 -0.01,-0.012 -0.01,-0.012 -0.01,-0.012 -0.01,-0.012 -0.01,-0.012 -0.01,-0.012 0,-0.012 0,-0.012 -0.01,-0.012 0,-0.012 0,-0.012 0,-0.012 0,-0.012 0,-0.012 0,-0.012 0,-0.012 0,-0.012 0,-0.012 0,-0.012 0,-0.012 0,-0.012 0,-0.012 0,-0.012 0,-0.012 0,-0.012 0,-0.012 0,-0.012 0,-0.012 0,-0.012 0,-0.012 0,-0.012 0,-0.012 0,-0.012 0,-0.012 0,-0.012 0,-0.012 0,-0.012 0,-0.012 0,-0.012 0,-0.012 0,-0.012 0,-0.012 0,-0.012 0,-0.012 0,-0.012 0,-0.012 0,-0.012 0,-0.012 0,-0.012 0,-0.012 0,-0.012 0,-0.012 0,-0.012 0,-0.012 0,-0.012 0,-0.012 0,-0.012 0,-0.012 0,-0.012 0,-0.012 0,-0.012 0,-0.012 0,-0.012 0,-0.012 0,-0.012 0,-0.012 0,-0.012 0,-0.012 0,-0.012 0,-0.012 0,-0.012 0,-0.012 0,-0.012 0,-0.012 0,-0.012 0,-0.012 0,-0.012 0,-0.012 0,-0.012 0,-0.012 0,-0.012 0,-0.012 0,-0.012 0,-0.012 0,-0.012 0,-0.012 0,-0.012 0,-0.012 0,-0.012 0,-0.012 0,-0.012 0,-0.012 0,-0.012 0,-0.012 0,-0.012 0,-0.012 0,-0.012 0,-0.012 0,-0.012 0,-0.012 0,-0.012 0,-0.012 0,-0.012 0,-0.012 0,-0.012 1e-4,-0.012 0,-0.012 0,-0.012 0,-0.012 0,-0.012 0,-0.012 0,-0.012 0,-0.012 0,-0.012 0,-0.012 0,-0.012 0,-0.012 0,-0.012 0,-0.012 0,-0.012 0,-0.012 0,-0.012 0,-0.012 0,-0.012 0,-0.012 0,-0.012 0,-0.012 0,-0.012 0,-0.012 0,-0.012 0,-0.012 0,-0.012 0,-0.012 0,-0.012 0,-0.012 0,-0.012 0,-0.012 0,-0.012 0,-0.012 0,-0.012 0,-0.012 0,-0.012 0,-0.012 0,-0.012 0,-0.012 0,-0.012 0,-0.012 0,-0.012 0,-0.012 0,-0.012 0,-0.012 0,-0.012 0,-0.012 0,-0.012 0,-0.012 0,-0.012 0,-0.012 0,-0.012 0,-0.012 0,-0.012 0,-0.012 0,-0.012 0,-0.012 0,-0.012 0,-0.012 0,-0.012 0,-0.012 0,-0.012 0,-0.012 0,-0.012 0,-0.012 0,-0.012 0,-0.012 0,-0.012 0,-0.012 0,-0.012 0,-0.012 0,-0.012 0,-0.012 0,-0.012 0,-0.012 0,-0.012 0,-0.012 0,-0.012 0,-0.012 0,-0.012 0,-0.012 0,-0.012 0,-0.012 0,-0.012 0,-0.012 0,-0.012 0.01,-0.012 0,-0.012 0,-0.012 0,-0.012 0,-0.012 0,-0.012 0,-0.012 0,-0.012 0,-0.012 0.01,-0.012 0.01,-0.012 0.01,-0.012 0.01,-0.012 0.01,-0.012 0.01,-0.012 0.01,-0.012 0.01,-0.012 0.01,-0.012 0.01,-0.012 0.01,-0.012 0.01,-0.012 0.01,-0.012 0.01,-0.012 0.01,-0.012 0.01,-0.012 0.01,-0.012 0.01,-0.012 0.01,-0.012 0.01,-0.012 0.01,-0.012 0.01,-0.012 0.01,-0.012 0.01,-0.012 0.01,-0.012 0.01,-0.012 0.01,-0.012 0.01,-0.012 0.01,-0.012 0.01,-0.012 0.01,-0.012 0.01,-0.012 0.01,-0.012 0.01,-0.012 0.01,-0.012 0.01,-0.012 0.01,-0.012 0.01,-0.012 0.01,-0.012 0.01,-0.012 0.01,-0.012 0.01,-0.012 0.01,-0.012 0.01,-0.012 0.01,-0.012 0.01,-0.012 0.01,-0.012 0.01,-0.012 0.01,-0.012 0.01,-0.012 0.01,-0.012 0.01,-0.012 0.01,-0.012 0.01,-0.012 0.01,-0.012 0.01,-0.012 0.01,-0.012 0.01,-0.012 0.01,-0.012 0.01,-0.012 0.01,-0.012 0.01,-0.012 0.01,-0.012 0.01,-0.012 0.01,-0.012 0.01,-0.012 0.01,-0.012 0.01,-0.012 0.01,-0.012 0.01,-0.012 0.01,-0.012 0.01,-0.012 0.01,-0.012 0.01,-0.012 0.01,-0.012 0.01,-0.012 0.01,-0.012 0.01,-0.012 0.01,-0.012 0.01,-0.012 0.01,-0.012 0.01,-0.012 0.01,-0.012 0.01,-0.012 0.01,-0.012 0.01,-0.012 0.01,-0.012 0.01,-0.012 0.01,-0.012 0.01,-0.012 0.01,-0.012 0.01,-0.012 0.01,-0.012 0.01,-0.012 0.01,-0.012 0.01,-0.012 0.01,-0.012 0.01,-0.012 0.01,-0.012 0.01,-0.012 0.01,-0.012 0.01,-0.012 0.01,-0.012 0.01,-0.012 0.01,-0.012 0.01,-0.012 0.01,-0.012 0.01,-0.012 0.01,-0.012 0.01,-0.012 0.01,-0.012 0.011,-0.012 0.011,-0.012 0.011,-0.012 0.011,-0.012 0.011,-0.012 0.011,-0.012 0.011,-0.012 0.011,-0.012 0.011,-0.012 0.011,-0.012 6.2982,-2.2375"
       style="fill:#ff6600;fill-opacity:1;stroke:#ff6600;stroke-opacity:1"
       id="path3899"
       inkscape:connector-curvature="0" />
    <path
       d="m 862.26107,417.56899 10.6219,2.7818 0,19.2205 -10.6219,7.3342 0,-29.3365"
       style="fill:#ff6600;fill-opacity:1;stroke:#ff6600;stroke-opacity:1"
       id="path3901"
       inkscape:connector-curvature="0" />
    <path
       d="m 872.88297,442.73259 -10.6219,7.3342 0,23.4565 11.1276,-12.9612 -0.5057,-17.8295"
       style="fill:#ff6600;fill-opacity:1;stroke:#ff6600;stroke-opacity:1"
       id="path3903"
       inkscape:connector-curvature="0" />
    <path
       d="m 870.22747,360.03399 5.3742,-11.6967 3.4773,20.8644 -8.8515,-9.1677"
       style="fill:#ff6600;fill-opacity:1;stroke:#ff6600;stroke-opacity:1"
       id="path3905"
       inkscape:connector-curvature="0" />
    <path
       sodipodi:nodetypes="cccccc"
       inkscape:connector-curvature="0"
       id="path4011"
       d="m 858.02187,377.43599 c -10.2388,6.4365 -15.7158,10.9149 -19.288,28.1581 0,0 -1.988,-17.9 -0.1453,-26.712 3.0002,-9.2317 11.2138,-17.2544 19.525,-22.2769 l -0.092,20.8308 c -10e-5,0 -10e-5,0 -10e-5,0 z"
       style="fill:#ff6600;stroke:#ff6600;stroke-opacity:1" />
    <path
       inkscape:connector-curvature="0"
       id="path4013"
       style="fill:#ff6600;fill-opacity:1;stroke:#ff6600;stroke-opacity:1"
       d="m 846.56317,395.85799 0,8.7844 6.3811,-2.7348 0.011,-0.012 0.011,-0.012 0.01,-0.012 0.01,-0.012 0.01,-0.012 0.01,-0.012 0.01,-0.012 0.01,-0.012 0.01,-0.012 0.01,-0.012 0.01,-0.012 0.01,-0.012 0.01,-0.012 0.01,-0.012 0.01,-0.012 0.01,-0.012 0.01,-0.012 0.01,-0.012 0.01,-0.012 0.01,-0.012 0.01,-0.012 0.01,-0.012 0.01,-0.012 0.01,-0.012 0.01,-0.012 0.01,-0.012 0.01,-0.012 0.01,-0.012 0.01,-0.012 0.01,-0.012 0.01,-0.012 0.01,-0.012 0.01,-0.012 0.01,-0.012 0.01,-0.012 0.01,-0.012 0.01,-0.012 0.01,-0.012 0.01,-0.012 0.01,-0.012 0.01,-0.012 0.01,-0.012 0.01,-0.012 0.01,-0.012 0.01,-0.012 0.01,-0.012 0.01,-0.012 0.01,-0.012 0.01,-0.012 0.01,-0.012 0.01,-0.012 0.01,-0.012 0.01,-0.012 0.01,-0.012 0.01,-0.012 0.01,-0.012 0.01,-0.012 0.01,-0.012 0.01,-0.012 0.01,-0.012 0.01,-0.012 0.01,-0.012 0.01,-0.012 0.01,-0.012 0.01,-0.012 0.01,-0.012 0.01,-0.012 0.01,-0.012 0.01,-0.012 0.01,-0.012 0.01,-0.012 0.01,-0.012 0.01,-0.012 0.01,-0.012 0.01,-0.012 0.01,-0.012 0.01,-0.012 0.01,-0.012 0.01,-0.012 0.01,-0.012 0.01,-0.012 0.01,-0.012 0.01,-0.012 0.01,-0.012 0.01,-0.012 0.01,-0.012 0.01,-0.012 0.01,-0.012 0.01,-0.012 0.01,-0.012 0.01,-0.012 0.01,-0.012 0.01,-0.012 0.01,-0.012 0.01,-0.012 0.01,-0.012 0.01,-0.012 0.01,-0.012 0.01,-0.012 0.01,-0.012 0.01,-0.012 0.01,-0.012 0.01,-0.012 0.01,-0.012 0.01,-0.012 0.01,-0.012 0.01,-0.012 0.01,-0.012 0.01,-0.012 0.01,-0.012 0.01,-0.012 0.01,-0.012 0.01,-0.012 0,-0.012 0,-0.012 0,-0.012 0,-0.012 0,-0.012 0.01,-0.012 0,-0.012 0,-0.012 0,-0.012 0,-0.012 0,-0.012 0,-0.012 0,-0.012 0,-0.012 0,-0.012 0,-0.012 0,-0.012 0,-0.012 0,-0.012 0,-0.012 0,-0.012 0,-0.012 0,-0.012 0,-0.012 0,-0.012 0,-0.012 0,-0.012 0,-0.012 0,-0.012 0,-0.012 0,-0.012 0,-0.012 0,-0.012 0,-0.012 0,-0.012 0,-0.012 0,-0.012 0,-0.012 0,-0.012 0,-0.012 0,-0.012 0,-0.012 0,-0.012 0,-0.012 0,-0.012 0,-0.012 0,-0.012 0,-0.012 0,-0.012 0,-0.012 0,-0.012 0,-0.012 0,-0.012 0,-0.012 0,-0.012 0,-0.012 0,-0.012 0,-0.012 0,-0.012 0,-0.012 0,-0.012 0,-0.012 0,-0.012 0,-0.012 0,-0.012 0,-0.012 0,-0.012 0,-0.012 0,-0.012 0,-0.012 0,-0.012 0,-0.012 0,-0.012 0,-0.012 0,-0.012 0,-0.012 0,-0.012 0,-0.012 0,-0.012 0,-0.012 0,-0.012 0,-0.012 0,-0.012 0,-0.012 0,-0.012 0,-0.012 0,-0.012 0,-0.012 0,-0.012 0,-0.012 0,-0.012 0,-0.012 0,-0.012 0,-0.012 0,-0.012 0,-0.012 10e-5,-0.012 0,-0.012 -10e-5,-0.012 -10e-5,-0.012 0,-0.012 0,-0.012 0,-0.012 0,-0.012 0,-0.012 0,-0.012 0,-0.012 0,-0.012 0,-0.012 0,-0.012 0,-0.012 0,-0.012 0,-0.012 0,-0.012 0,-0.012 0,-0.012 0,-0.012 0,-0.012 0,-0.012 0,-0.012 0,-0.012 0,-0.012 0,-0.012 0,-0.012 0,-0.012 0,-0.012 0,-0.012 0,-0.012 0,-0.012 0,-0.012 0,-0.012 0,-0.012 0,-0.012 0,-0.012 0,-0.012 0,-0.012 0,-0.012 0,-0.012 0,-0.012 0,-0.012 0,-0.012 0,-0.012 0,-0.012 0,-0.012 0,-0.012 0,-0.012 0,-0.012 0,-0.012 0,-0.012 0,-0.012 0,-0.012 0,-0.012 0,-0.012 0,-0.012 0,-0.012 0,-0.012 0,-0.012 0,-0.012 0,-0.012 0,-0.012 0,-0.012 0,-0.012 0,-0.012 0,-0.012 0,-0.012 0,-0.012 0,-0.012 0,-0.012 0,-0.012 0,-0.012 0,-0.012 0,-0.012 0,-0.012 0,-0.012 0,-0.012 0,-0.012 0,-0.012 0,-0.012 0,-0.012 0,-0.012 0,-0.012 0,-0.012 0,-0.012 -0.01,-0.012 0,-0.012 0,-0.012 0,-0.012 0,-0.012 0,-0.012 0,-0.012 0,-0.012 0,-0.012 0,-0.012 0,-0.012 0,-0.012 -0.01,-0.012 -0.01,-0.012 -0.01,-0.012 -0.01,-0.012 -0.01,-0.012 -0.01,-0.012 -0.01,-0.012 -0.01,-0.012 -0.01,-0.012 -0.01,-0.012 -0.01,-0.012 -0.01,-0.012 -0.01,-0.012 -0.01,-0.012 -0.01,-0.012 -0.01,-0.012 -0.01,-0.012 -0.01,-0.012 -0.01,-0.012 -0.01,-0.012 -0.01,-0.012 -0.01,-0.012 -0.01,-0.012 -0.01,-0.012 -0.01,-0.012 -0.01,-0.012 -0.01,-0.012 -0.01,-0.012 -0.01,-0.012 -0.01,-0.012 -0.01,-0.012 -0.01,-0.012 -0.01,-0.012 -0.01,-0.012 -0.01,-0.012 -0.01,-0.012 -0.01,-0.012 -0.01,-0.012 -0.01,-0.012 -0.01,-0.012 -0.01,-0.012 -0.01,-0.012 -0.01,-0.012 -0.01,-0.012 -0.01,-0.012 -0.01,-0.012 -0.01,-0.012 -0.01,-0.012 -0.01,-0.012 -0.01,-0.012 -0.01,-0.012 -0.01,-0.012 -0.01,-0.012 -0.01,-0.012 -0.01,-0.012 -0.01,-0.012 -0.01,-0.012 -0.01,-0.012 -0.01,-0.012 -0.01,-0.012 -0.01,-0.012 -0.01,-0.012 -0.01,-0.012 -0.01,-0.012 -0.01,-0.012 -0.01,-0.012 -0.01,-0.012 -0.01,-0.012 -0.01,-0.012 -0.01,-0.012 -0.01,-0.012 -0.01,-0.012 -0.01,-0.012 -0.01,-0.012 -0.01,-0.012 -0.01,-0.012 -0.01,-0.012 -0.01,-0.012 -0.01,-0.012 -0.01,-0.012 -0.01,-0.012 -0.01,-0.012 -0.01,-0.012 -0.01,-0.012 -0.01,-0.012 -0.01,-0.012 -0.01,-0.012 -0.01,-0.012 -0.01,-0.012 -0.01,-0.012 -0.01,-0.012 -0.01,-0.012 -0.01,-0.012 -0.01,-0.012 -0.01,-0.012 -0.01,-0.012 -0.01,-0.012 -0.01,-0.012 -0.01,-0.012 -0.01,-0.012 -0.01,-0.012 -0.01,-0.012 -0.01,-0.012 -0.01,-0.012 -0.01,-0.012 -0.01,-0.012 -0.01,-0.012 -0.01,-0.012 -0.01,-0.012 -0.01,-0.012 -0.01,-0.012 -0.011,-0.012 -0.011,-0.012 -0.011,-0.012 -0.011,-0.012 -0.011,-0.012 -0.011,-0.012 -0.011,-0.012 -0.011,-0.012 -0.011,-0.012 -0.011,-0.012 -6.2981,-2.2375" />
    <path
       inkscape:connector-curvature="0"
       id="path4015"
       style="fill:#ff6600;fill-opacity:1;stroke:#ff6600;stroke-opacity:1"
       d="m 857.65807,417.56899 -10.6218,2.7818 0,19.2205 10.6218,7.3342 0,-29.3365" />
    <path
       inkscape:connector-curvature="0"
       id="path4017"
       style="fill:#ff6600;fill-opacity:1;stroke:#ff6600;stroke-opacity:1"
       d="m 847.03627,442.73259 10.6218,7.3342 0,23.4565 -11.1276,-12.9612 0.5058,-17.8295" />
    <path
       inkscape:connector-curvature="0"
       id="path4019"
       style="fill:#ff6600;fill-opacity:1;stroke:#ff6600;stroke-opacity:1"
       d="m 849.69167,360.03399 -5.3741,-11.6967 -3.4774,20.8644 8.8515,-9.1677" />
    <g
       id="g4186"
       transform="translate(-1049.0335,-1314.7122)"
       inkscape:export-filename="/Users/kaos/Documents/Processing/moOSCog/data/logo.png"
       inkscape:export-xdpi="100"
       inkscape:export-ydpi="100">
      <rect
         style="fill:#ff6600;fill-opacity:1;stroke:none"
         id="rect4021"
         width="11.49688"
         height="11.49688"
         x="874.26276"
         y="1680.9979"
         ry="2.6586461" />
      <rect
         ry="2.6586461"
         y="1680.9979"
         x="887.7309"
         height="11.49688"
         width="11.49688"
         id="rect4023"
         style="fill:none;stroke:#ff6600;stroke-width:1.58679056;stroke-opacity:1" />
      <rect
         ry="2.6586461"
         y="1680.9979"
         x="901.19885"
         height="11.49688"
         width="11.49688"
         id="rect4025"
         style="fill:none;stroke:#ff6600;stroke-width:1.58679056;stroke-opacity:1" />
      <rect
         style="fill:#ff6600;fill-opacity:1;stroke:none"
         id="rect4027"
         width="11.49688"
         height="11.49688"
         x="914.66705"
         y="1680.9979"
         ry="2.6586461" />
      <rect
         ry="2.6586461"
         y="1694.4661"
         x="874.26276"
         height="11.49688"
         width="11.49688"
         id="rect4029"
         style="fill:#ff6600;fill-opacity:1;stroke:none" />
      <rect
         style="fill:#ff6600;fill-opacity:1;stroke:#ff6600;stroke-opacity:1"
         id="rect4031"
         width="11.49688"
         height="11.49688"
         x="887.7309"
         y="1694.4661"
         ry="2.6586461" />
      <rect
         style="fill:#ff6600;fill-opacity:1;stroke:#ff6600;stroke-opacity:1"
         id="rect4033"
         width="11.49688"
         height="11.49688"
         x="901.19885"
         y="1694.4661"
         ry="2.6586461" />
      <rect
         ry="2.6586461"
         y="1694.4661"
         x="914.66705"
         height="11.49688"
         width="11.49688"
         id="rect4035"
         style="fill:#ff6600;fill-opacity:1;stroke:none" />
      <rect
         style="fill:#ff6600;fill-opacity:1;stroke:none"
         id="rect4037"
         width="11.49688"
         height="11.49688"
         x="874.26276"
         y="1707.9342"
         ry="2.6586461" />
      <rect
         ry="2.6586461"
         y="1707.9342"
         x="887.7309"
         height="11.49688"
         width="11.49688"
         id="rect4039"
         style="fill:none;stroke:#ff6600;stroke-width:1.58679056;stroke-opacity:1" />
      <rect
         ry="2.6586461"
         y="1707.9342"
         x="901.19885"
         height="11.49688"
         width="11.49688"
         id="rect4041"
         style="fill:#ff6600;fill-opacity:1;stroke:none" />
      <rect
         style="fill:none;stroke:#ff6600;stroke-width:1.58679056;stroke-opacity:1"
         id="rect4043"
         width="11.49688"
         height="11.49688"
         x="914.66705"
         y="1707.9342"
         ry="2.6586461" />
      <rect
         ry="2.6586461"
         y="1721.4026"
         x="874.26276"
         height="11.49688"
         width="11.49688"
         id="rect4045"
         style="fill:#ff6600;fill-opacity:1;stroke:none" />
      <rect
         style="fill:#ff6600;fill-opacity:1;stroke:none"
         id="rect4047"
         width="11.49688"
         height="11.49688"
         x="887.7309"
         y="1721.4026"
         ry="2.6586461" />
      <rect
         style="fill:#ff6600;fill-opacity:1;stroke:none"
         id="rect4049"
         width="11.49688"
         height="11.49688"
         x="901.19885"
         y="1721.4026"
         ry="2.6586461" />
      <rect
         ry="2.6586461"
         y="1721.4026"
         x="914.66705"
         height="11.49688"
         width="11.49688"
         id="rect4051"
         style="fill:#ff6600;fill-opacity:1;stroke:none" />
    </g>
    <g
       style="fill:#ff6600;fill-opacity:1"
       transform="matrix(0.40497961,0,0,0.40497961,593.13867,140.37859)"
       id="g4053">
      <path
         sodipodi:nodetypes="sscscccscsccccsccssscssssscsscssscssscsscscsssscscccscsssscccsscsssssscssscsssssssssssssssssssscssssssssssssssccscccssccssscs"
         inkscape:connector-curvature="0"
         id="path4055"
         d="m 530.21428,1899.1478 c 0,-2.1728 -0.44167,-2.5 -3.375,-2.5 -1.85625,0 -4.78125,-0.2812 -6.5,-0.625 -2.88097,-0.5762 -3.125,-0.4147 -3.125,2.0674 0,2.0894 -0.39195,2.5796 -1.75,2.1888 -0.9625,-0.277 -3.70213,-1.0655 -6.08807,-1.7521 -3.91433,-1.1265 -4.28768,-1.5004 -3.82224,-3.8275 0.45489,-2.2745 -0.0958,-2.9063 -4.66193,-5.3488 -5.15157,-2.7556 -5.18605,-2.7594 -6.81679,-0.7624 -1.6149,1.9775 -1.70759,1.9468 -6.29346,-2.0899 -4.20698,-3.7031 -4.51055,-4.256 -3.15781,-5.7507 1.34587,-1.4872 1.14023,-2.1043 -2.0416,-6.1268 -1.94603,-2.4601 -3.68641,-4.622 -3.86752,-4.804 -0.18111,-0.1821 -1.23748,0.155 -2.34749,0.7491 -1.7031,0.9114 -2.30957,0.6509 -3.8844,-1.669 -1.02641,-1.512 -2.41529,-4.0265 -3.0864,-5.5878 -1.09546,-2.5484 -1.01379,-2.8926 0.79875,-3.3666 2.43563,-0.6369 2.48734,-1.5638 0.42496,-7.6166 -1.27356,-3.7377 -2.05255,-4.6781 -3.875,-4.6781 -1.75472,0 -2.4252,-0.721 -2.906,-3.125 -1.0644,-5.322 -0.76105,-9.8621 0.625,-9.3541 2.33023,0.854 3.44758,-1.0043 4.01829,-6.6829 0.54011,-5.3742 0.4454,-5.693 -1.86305,-6.2724 -2.64994,-0.6651 -2.61442,-2.4227 0.18887,-9.3444 1.08995,-2.6912 1.73815,-3.179 3.61691,-2.7219 1.95155,0.4748 2.68811,-0.2025 4.99657,-4.5952 2.67677,-5.0936 2.68519,-5.1707 0.73997,-6.7781 -1.92634,-1.5919 -1.88102,-1.7266 2.16098,-6.4237 3.89319,-4.5241 4.23242,-4.7037 5.94959,-3.1497 1.71041,1.5479 2.09793,1.4165 6.38143,-2.1641 4.71827,-3.9439 5.25921,-4.8386 3.56044,-5.8885 -1.96428,-1.214 -0.92718,-2.5032 4.03749,-5.019 5.12817,-2.5986 6.96251,-2.5588 6.96251,0.1513 0,0.8329 0.5625,1.3464 1.25,1.141 0.6875,-0.2053 3.3875,-1.0066 6,-1.7807 4.12852,-1.2233 4.75,-1.7566 4.75,-4.0762 0,-2.5256 0.30829,-2.6949 5.75,-3.1568 5.69185,-0.4831 7.55012,0.2947 6.60266,2.7638 -0.50808,1.324 3.80715,2.4766 9.27234,2.4766 2.2719,0 3.375,-0.471 3.375,-1.441 0,-2.4756 1.8395,-2.7476 7.48423,-1.1066 5.12317,1.4893 5.42783,1.7542 4.96679,4.3171 -0.44494,2.4735 -0.004,2.9565 4.68201,5.1314 4.87831,2.264 5.24617,2.301 6.45354,0.6498 1.42683,-1.9513 2.07259,-1.7063 7.59633,2.8813 3.39032,2.8158 3.5586,3.1962 2.1182,4.7878 -1.41996,1.569 -1.41804,1.9395 0.0207,4.0046 4.67711,6.7134 5.36716,7.2384 7.9614,6.0563 2.34358,-1.0678 2.60998,-0.8455 5.25719,4.3866 2.788,5.5104 2.71588,6.2493 -0.73867,7.5664 -0.38406,0.1465 0.0659,2.853 1,6.0144 1.5338,5.1914 1.96467,5.7483 4.4483,5.75 2.58477,0 2.75,0.2674 2.75,4.4201 0,2.43 0.27314,5.13 0.60699,6 0.45302,1.1806 -0.0226,1.5818 -1.875,1.5818 -2.67865,0 -3.73199,2.7166 -3.73199,9.625 0,2.7083 0.39506,3.375 2,3.375 2.40381,0 2.41878,0.2268 0.45224,6.8489 -1.37293,4.6231 -1.82861,5.1802 -4.0342,4.9315 -2.04794,-0.231 -2.95009,0.5557 -5.11542,4.4606 -2.47238,4.4585 -2.52924,4.8511 -0.95443,6.5913 1.58141,1.7474 1.47669,2.1094 -1.88263,6.509 -3.8709,5.0696 -4.87288,5.5402 -6.31377,2.9655 -0.84492,-1.5098 -1.3416,-1.3473 -4.58448,1.5 -2.0003,1.7562 -4.07124,3.1932 -4.60211,3.1932 -1.30125,0 -1.22905,3.3362 0.10099,4.6662 0.75492,0.7549 -0.2459,1.8351 -3.42807,3.7 -5.27553,3.0917 -6.48362,3.2274 -8.17233,0.9179 -1.18396,-1.6192 -1.57566,-1.6147 -6.94881,0.079 -5.11108,1.6111 -5.63522,2.0296 -5.1188,4.0872 0.50607,2.0164 0.1255,2.3667 -3.16143,2.91 -7.4693,1.2347 -9.23677,0.8787 -9.23677,-1.8603 z m 12.41762,-8.0002 c 3.80469,-0.806 9.11167,-2.6127 11.79329,-4.0149 2.68162,-1.4022 5.41869,-2.2378 6.08238,-1.8568 0.66369,0.3809 0.89326,0.3445 0.51015,-0.081 -0.3831,-0.4255 1.4169,-2.4677 4,-4.5383 6.8014,-5.452 10.59382,-9.7196 14.66081,-16.4979 11.40669,-19.0111 10.47286,-43.8952 -2.33146,-62.1279 -5.73512,-8.1666 -9.76262,-11.8981 -18.14249,-16.8094 -9.57219,-5.6101 -17.78105,-7.8566 -28.92263,-7.9152 -16.72492,-0.088 -29.08005,5.0886 -41.11867,17.2276 -11.63503,11.7321 -16.949,24.3089 -16.949,40.114 0,15.4916 6.01703,30.1011 16.83774,40.8825 14.43052,14.378 33.37062,19.8986 53.57988,15.6173 z m -21.91762,-8.5218 c -21.39128,-4.2937 -37.41228,-22.2479 -39.18433,-43.9126 -1.83449,-22.4283 13.3286,-44.2987 35.07139,-50.5849 8.13639,-2.3524 22.89072,-1.655 30.93717,1.4623 13.05082,5.0562 24.54918,17.4323 28.70919,30.9008 2.17056,7.0275 2.57959,18.7853 0.90604,26.0446 -5.59008,24.2481 -31.83286,41.0288 -56.43946,36.0898 z m 13.67126,-12.633 c 2.41285,-2.1836 2.3274,-6.8463 -0.17126,-9.345 -4.822,-4.822 -12.80347,-0.2883 -10.93877,6.2135 0.49622,1.7302 1.47295,3.5081 2.1705,3.9509 2.15255,1.3663 7.01711,0.9204 8.93953,-0.8194 z m 26.57874,-15.1371 c 0.6875,-0.8746 1.25,-3.0536 1.25,-4.8423 0,-3.5666 -2.87308,-6.3656 -6.53394,-6.3656 -2.72834,0 -6.46606,3.5288 -6.46606,6.1047 0,6.5703 7.89969,10.0013 11.75,5.1032 z m -53.38486,-0.2805 c 6.36013,-5.0029 0.27093,-14.27 -7.05676,-10.7397 -3.31835,1.5987 -4.44743,5.392 -2.67055,8.972 2.14017,4.3119 5.67604,4.9545 9.72731,1.7677 z m 30.45169,-10.7563 c 7.69861,-7.1916 3.49308,-19.725 -7.00456,-20.8752 -11.78656,-1.2914 -17.85447,13.4421 -8.70629,21.1398 4.45242,3.7465 11.54486,3.627 15.71085,-0.2646 z m -28.60249,-20.4837 c 1.32249,-2.0798 0.84294,-6.9666 -0.86933,-8.8587 -2.1836,-2.4128 -6.84635,-2.3274 -9.34501,0.1713 -3.61894,3.6189 -2.02168,9.5959 3,11.2259 1.84648,0.5994 6.19118,-0.9293 7.21434,-2.5385 z m 51.14872,1.8067 c 2.37284,-2.3729 2.87269,-5.2292 1.43985,-8.228 -2.26301,-4.7363 -9.70228,-4.3375 -11.76006,0.6305 -1.2494,3.0163 -0.23416,6.608 2.35685,8.3381 1.88135,1.2562 6.38543,0.8373 7.96336,-0.7406 z m -25.81761,-15.9486 c 1.35,-1.35 2.45455,-3.3955 2.45455,-4.5455 0,-2.4711 -4.2185,-7 -6.52029,-7 -7.01769,0 -9.62084,10.4017 -3.24425,12.9635 3.55509,1.4282 4.68243,1.2095 7.30999,-1.418 z"
         style="fill:#ff6600;fill-opacity:1" />
    </g>
    <g
       id="g4063"
       transform="translate(-309.56832,-868.41281)">
      <path
         sodipodi:type="arc"
         style="fill:#ff6600;fill-opacity:1;stroke:none"
         id="path4057"
         sodipodi:cx="600.71429"
         sodipodi:cy="1401.6479"
         sodipodi:rx="8.5714283"
         sodipodi:ry="8.5714283"
         d="m 609.28572,1401.6479 c 0,4.7339 -3.83756,8.5715 -8.57143,8.5715 -4.73386,0 -8.57142,-3.8376 -8.57142,-8.5715 0,-4.7338 3.83756,-8.5714 8.57142,-8.5714 4.73387,0 8.57143,3.8376 8.57143,8.5714 z"
         transform="matrix(0.03210227,0.99948459,-0.99948459,0.03210227,2551.1955,525.96833)" />
      <path
         style="fill:url(#linearGradient4067);fill-opacity:1;stroke:none"
         d="m 1245.6409,1360.469 -140.049,5.1785 55.419,-194.0068 17.1343,-0.5461 z"
         id="path4059"
         inkscape:connector-curvature="0"
         sodipodi:nodetypes="ccccc" />
    </g>
    <g
       transform="translate(-610.36454,-550.94199)"
       id="g4087"
       inkscape:export-filename="/Users/kaos/Documents/Processing/moOSCog/data/logo.png"
       inkscape:export-xdpi="100"
       inkscape:export-ydpi="100">
      <path
         inkscape:connector-curvature="0"
         id="path4089"
         d="m 475.50355,1017.9959 c 6.76857,-3.1675 17.47947,-13.4493 21.43677,-20.57797 8.86415,-15.96784 9.32427,-17.15704 10.19498,-26.35044 3.81322,-40.262 4.88397,-69.4158 2.61825,-71.2881 -0.6875,-0.5681 -3.05,-1.3361 -5.25,-1.7066 -2.2,-0.3706 -5.5035,-1.1342 -7.3411,-1.6971 -3.14765,-0.9642 -3.30351,-1.2238 -2.69179,-4.4846 0.48038,-2.5606 0.11383,-4.3687 -1.4089,-6.9495 -3.3482,-5.6748 -2.84077,-6.7974 3.69179,-8.1677 3.1625,-0.6633 17.35504,-1.5455 31.53898,-1.9603 15.07191,-0.4408 26.08446,-1.1681 26.5,-1.7502 0.39106,-0.5477 1.4312,-1.4459 2.31143,-1.9959 12.60286,-7.8748 24.38119,-20.3483 27.85579,-29.5 2.79256,-7.3554 5.26926,-11.6249 7.27706,-12.5451 1.1458,-0.5252 2.8219,-2.3049 3.7246,-3.9549 0.9026,-1.65 2.6297,-4.575 3.8379,-6.5 4.8391,-7.7101 1.6065,-10.2963 -4.4744,-3.5796 -4.962,5.4806 -6.3191,4.5989 -4.4355,-2.8817 1.3967,-5.5466 1.3971,-5.5387 -0.2639,-5.5387 -0.7579,0 -2.0266,0.9768 -2.8193,2.1707 -3.30216,4.9733 -5.27156,-2.4294 -2.21756,-8.3353 2.45766,-4.7525 0.2518,-5.9428 -3.5236,-1.9012 -4.3228,4.6275 -5.9964,3.657 -8.07799,-4.6842 -1.44051,-5.7724 -4.49135,-5.9125 -6.69308,-0.3074 -2.11552,5.3855 -4.04273,5.8945 -5.85913,1.5472 -1.83138,-4.3831 -4.4313,-4.6705 -4.4313,-0.4898 0,1.6843 -0.5482,3.0403 -1.25,3.0919 -0.6875,0.05 -2.6,0.163 -4.25,0.25 -2.96356,0.1562 -3.00607,0.2391 -3.5,6.8272 -0.275,3.668 -0.83818,7.0062 -1.25151,7.4182 -0.41333,0.412 -1.83292,0.1703 -3.15464,-0.5371 -1.32173,-0.7073 -2.89605,-0.9815 -3.4985,-0.6091 -1.54206,0.953 -1.36354,6.7295 0.28081,9.0864 2.05731,2.9488 3.97893,12.774 3.24785,16.6062 -1.00789,5.2831 -5.36737,13.8663 -7.04282,13.8663 -1.87899,0 -2.76605,-1.7708 -5.00947,-10 -2.58621,-9.4866 -4.62521,-15 -5.54744,-15 -1.76592,0 -2.02874,3.7495 -0.94063,13.4195 1.26596,11.2505 0.0647,16.7854 -3.86602,17.8133 -2.95748,0.7734 -8.81057,-2.2715 -11.42847,-5.9453 -6.89922,-9.682 -8.78916,-12.4218 -8.78916,-12.7416 0,-0.1946 -1.61913,-3.2095 -3.59806,-6.6998 -1.97893,-3.4904 -4.95488,-8.8211 -6.61322,-11.8461 -3.40557,-6.2121 -6.40019,-9.7219 -7.42264,-8.6994 -1.24369,1.2437 1.83782,8.9583 9.68418,24.2445 6.55098,12.7625 7.53346,15.3037 6.47592,16.75 -0.68566,0.9377 -1.5214,1.7049 -1.85719,1.7049 -0.33578,0 -2.68646,1.4625 -5.22372,3.25 l -4.6132,3.25 -13.66604,0.1213 c -7.51631,0.067 -15.7781,0.4474 -18.35953,0.8462 -5.7437,0.8871 -10.0445,-0.4133 -17.08545,-5.166 -2.87158,-1.9383 -6.17736,-3.8916 -7.34618,-4.3406 -1.62095,-0.6227 -2.00848,-1.4267 -1.63343,-3.3887 0.27044,-1.4147 0.88925,-2.5722 1.37514,-2.5722 0.48588,0 0.88342,-0.5908 0.88342,-1.3128 0,-0.7221 1.18102,-3.7596 2.62448,-6.75 1.44347,-2.9905 3.92558,-8.3622 5.51581,-11.9372 1.59023,-3.575 3.33421,-7.2814 3.87551,-8.2364 1.27037,-2.2414 1.26221,-5.4737 -0.0158,-6.2636 -0.55,-0.3399 -1,0.046 -1,0.8576 0,0.8117 -0.3375,1.6257 -0.75,1.8091 -0.4125,0.1833 -1.84739,2.3583 -3.18864,4.8333 -5.02839,9.2789 -18.30697,29.4837 -20.28896,30.872 -1.13214,0.793 -2.97522,2.4962 -4.09575,3.7849 -1.60993,1.8516 -3.04838,2.3431 -6.85699,2.3431 l -4.81966,0 0,-11.893 c 0,-9.7595 -0.27483,-11.9985 -1.53201,-12.4809 -1.99312,-0.7648 -3.21781,2.4757 -4.06658,10.7602 -0.82274,8.0304 -1.60695,9.5163 -3.98433,7.5494 -2.71935,-2.2498 -6.39654,-11.0394 -6.40731,-15.3154 -0.0109,-4.3403 3.9533,-19.9348 5.19998,-20.4557 1.49608,-0.6251 -0.31483,-2.1646 -2.54626,-2.1646 -1.22016,0 -3.21861,-0.7005 -4.44098,-1.5567 -1.81554,-1.2717 -2.22251,-2.5156 -2.22251,-6.7932 0,-5.0441 -0.11934,-5.2717 -3.24792,-6.1933 -2.02,-0.5951 -3.3839,-1.7129 -3.6076,-2.9568 -0.19784,-1.1 -0.79417,-2.5358 -1.3252,-3.1906 -1.13449,-1.3989 -3.81928,-0.6274 -3.81928,1.0976 0,0.6561 -0.52047,1.7135 -1.15659,2.3496 -1.59192,1.5919 -6.40995,-1.8934 -7.25127,-5.2455 -0.34664,-1.3811 -1.24711,-2.5111 -2.00106,-2.5111 -1.27293,0 -5.59108,7.7149 -5.59108,9.9891 0,0.556 -1.27396,1.0109 -2.83102,1.0109 -1.9963,0 -3.22551,-0.7371 -4.16898,-2.5 -1.43104,-2.6739 -3.55981,-3.2983 -4.2616,-1.25 -0.23555,0.6875 0.40195,3.1998 1.41666,5.5829 3.03187,7.1205 1.97333,9.0466 -3.04138,5.5342 -1.95397,-1.3686 -2.47311,-1.4091 -3.2072,-0.25 -1.22126,1.9283 -1.13042,2.5161 0.66654,4.3131 2.12472,2.1247 1.41493,4.9973 -1.33162,5.3891 -1.58732,0.2265 -2.49607,-0.3551 -3.12503,-2 -1.24486,-3.2556 -4.75244,-6.1729 -6.57913,-5.472 -1.8566,0.7125 -2.0153,4.007 -0.28089,5.8313 1.24655,1.3111 10.18279,15.2666 12.52368,19.5578 0.67098,1.2301 1.21997,2.8086 1.21997,3.508 0,1.3004 4.78916,10.8523 5.89405,11.7556 0.33637,0.275 1.9335,2.4479 3.5492,4.8286 5.63495,8.303 16.471,16.3737 26.04754,19.4001 1.65506,0.5231 14.48421,1.2904 28.50921,1.7053 17.68624,0.5231 26.346,1.1591 28.2609,2.0756 2.70001,1.2922 2.74827,1.4666 2.18832,7.9059 -0.93798,10.7867 -0.85543,10.634 -6.6826,12.3625 -2.89664,0.8592 -6.54138,1.8411 -8.09943,2.1819 l -2.8328,0.6198 0.46252,37.7101 c 0.34637,28.24 0.81108,38.8403 1.85045,42.2102 1.92671,6.2469 7.96812,19.00004 9.00068,19.00004 0.46858,0 0.85196,0.5653 0.85196,1.2562 0,1.78717 10.54318,12.44317 14.32731,14.48057 1.74498,0.9396 6.32269,3.1797 10.17269,4.9782 8.23516,3.8469 11.25986,3.8036 20,-0.2866 z"
         style="opacity:0.5;fill:#ff6600;fill-opacity:1" />
    </g>
    <g
       transform="matrix(0.5744418,0,0,1,297.29597,-440.10813)"
       id="g4091">
      <path
         transform="matrix(0.03210227,0.99948459,-0.99948459,0.03210227,2551.1955,525.96833)"
         d="m 609.28572,1401.6479 c 0,4.7339 -3.83756,8.5715 -8.57143,8.5715 -4.73386,0 -8.57142,-3.8376 -8.57142,-8.5715 0,-4.7338 3.83756,-8.5714 8.57142,-8.5714 4.73387,0 8.57143,3.8376 8.57143,8.5714 z"
         sodipodi:ry="8.5714283"
         sodipodi:rx="8.5714283"
         sodipodi:cy="1401.6479"
         sodipodi:cx="600.71429"
         id="path4093"
         style="fill:#ff6600;fill-opacity:1;stroke:none"
         sodipodi:type="arc" />
      <path
         sodipodi:nodetypes="ccccc"
         inkscape:connector-curvature="0"
         id="path4095"
         d="m 1245.6409,1360.469 -140.049,5.1785 55.419,-194.0068 17.1343,-0.5461 z"
         style="fill:url(#linearGradient4097);fill-opacity:1;stroke:none" />
    </g>
    <g
       transform="matrix(1.5867906,0,0,1.5867906,-1104.326,-920.16176)"
       id="g4117">
      <g
         id="g4119">
        <rect
           style="fill:#ff6600;fill-opacity:1;stroke:none"
           id="rect4121"
           width="7.2453666"
           height="7.2453666"
           x="1053.0863"
           y="1150.6678"
           ry="1.6754864" />
        <rect
           ry="1.6754864"
           y="1150.6678"
           x="1061.574"
           height="7.2453666"
           width="7.2453666"
           id="rect4123"
           style="fill:none;stroke:#ff6600;stroke-opacity:1" />
        <rect
           ry="1.6754864"
           y="1150.6678"
           x="1070.0615"
           height="7.2453666"
           width="7.2453666"
           id="rect4125"
           style="fill:none;stroke:#ff6600;stroke-opacity:1" />
        <rect
           style="fill:#ff6600;fill-opacity:1;stroke:none"
           id="rect4127"
           width="7.2453666"
           height="7.2453666"
           x="1078.5492"
           y="1150.6678"
           ry="1.6754864" />
        <rect
           ry="1.6754864"
           y="1159.1555"
           x="1053.0863"
           height="7.2453666"
           width="7.2453666"
           id="rect4129"
           style="fill:#ff6600;fill-opacity:1;stroke:none" />
        <rect
           style="fill:#ff6600;fill-opacity:1;stroke:none"
           id="rect4131"
           width="7.2453666"
           height="7.2453666"
           x="1061.574"
           y="1159.1555"
           ry="1.6754864" />
        <rect
           style="fill:#ff6600;fill-opacity:1;stroke:none"
           id="rect4133"
           width="7.2453666"
           height="7.2453666"
           x="1070.0615"
           y="1159.1555"
           ry="1.6754864" />
        <rect
           ry="1.6754864"
           y="1159.1555"
           x="1078.5492"
           height="7.2453666"
           width="7.2453666"
           id="rect4135"
           style="fill:#ff6600;fill-opacity:1;stroke:none" />
        <rect
           style="fill:#ff6600;fill-opacity:1;stroke:none"
           id="rect4137"
           width="7.2453666"
           height="7.2453666"
           x="1053.0863"
           y="1167.6432"
           ry="1.6754864" />
        <rect
           ry="1.6754864"
           y="1167.6432"
           x="1061.574"
           height="7.2453666"
           width="7.2453666"
           id="rect4139"
           style="fill:none;stroke:#ff6600;stroke-opacity:1" />
        <rect
           ry="1.6754864"
           y="1167.6432"
           x="1070.0615"
           height="7.2453666"
           width="7.2453666"
           id="rect4141"
           style="fill:#ff6600;fill-opacity:1;stroke:none" />
        <rect
           style="fill:none;stroke:#ff6600;stroke-opacity:1"
           id="rect4143"
           width="7.2453666"
           height="7.2453666"
           x="1078.5492"
           y="1167.6432"
           ry="1.6754864" />
        <rect
           ry="1.6754864"
           y="1176.131"
           x="1053.0863"
           height="7.2453666"
           width="7.2453666"
           id="rect4145"
           style="fill:#ff6600;fill-opacity:1;stroke:none" />
        <rect
           style="fill:#ff6600;fill-opacity:1;stroke:none"
           id="rect4147"
           width="7.2453666"
           height="7.2453666"
           x="1061.574"
           y="1176.131"
           ry="1.6754864" />
        <rect
           style="fill:#ff6600;fill-opacity:1;stroke:none"
           id="rect4149"
           width="7.2453666"
           height="7.2453666"
           x="1070.0615"
           y="1176.131"
           ry="1.6754864" />
        <rect
           ry="1.6754864"
           y="1176.131"
           x="1078.5492"
           height="7.2453666"
           width="7.2453666"
           id="rect4151"
           style="fill:#ff6600;fill-opacity:1;stroke:none" />
      </g>
    </g>
  </g>
</svg>
